<?xml version="1.0" encoding="UTF-8" standalone="no"?>
<!-- Created with Inkscape (http://www.inkscape.org/) -->

<svg
   xmlns:dc="http://purl.org/dc/elements/1.1/"
   xmlns:cc="http://creativecommons.org/ns#"
   xmlns:rdf="http://www.w3.org/1999/02/22-rdf-syntax-ns#"
   xmlns:svg="http://www.w3.org/2000/svg"
   xmlns="http://www.w3.org/2000/svg"
   xmlns:sodipodi="http://sodipodi.sourceforge.net/DTD/sodipodi-0.dtd"
   xmlns:inkscape="http://www.inkscape.org/namespaces/inkscape"
   width="536.27136"
   height="606.33466"
   id="svg2"
   version="1.1"
   inkscape:version="0.48.0 r9654"
   sodipodi:docname="11.svg">
  <defs
     id="defs4" />
  <sodipodi:namedview
     id="base"
     pagecolor="#ffffff"
     bordercolor="#666666"
     borderopacity="1.0"
     inkscape:pageopacity="0.0"
     inkscape:pageshadow="2"
     inkscape:zoom="0.7"
     inkscape:cx="325.66068"
     inkscape:cy="299.65554"
     inkscape:document-units="px"
     inkscape:current-layer="layer1"
     showgrid="false"
     fit-margin-top="0"
     fit-margin-left="0"
     fit-margin-right="0"
     fit-margin-bottom="0"
     inkscape:window-width="1366"
     inkscape:window-height="706"
     inkscape:window-x="-8"
     inkscape:window-y="-8"
     inkscape:window-maximized="1" />
  <metadata
     id="metadata7">
    <rdf:RDF>
      <cc:Work
         rdf:about="">
        <dc:format>image/svg+xml</dc:format>
        <dc:type
           rdf:resource="http://purl.org/dc/dcmitype/StillImage" />
        <dc:title></dc:title>
      </cc:Work>
    </rdf:RDF>
  </metadata>
  <g
     inkscape:label="Layer 1"
     inkscape:groupmode="layer"
     id="layer1"
     transform="scale(-1,1) translate(-453.449538,-78.410881)">
    <path
       style="fill:#eac67a"
       d="m -82.887668,653.99555 c 0.74662,-40.86121 3.74657,-67.65258 11.78532,-105.25 27.75059,-129.79027 99.23568,-237.44077 208.337148,-313.73814 25.06981,-17.53194 55.13296,-33.89503 87.08703,-47.40066 7.7,-3.25446 15.01133,-6.34442 16.2474,-6.86658 l 2.24739,-0.94937 -2.57558,-5.77262 c -3.46386,-7.7635 -39.41921,-94.912466 -39.41921,-95.544706 0,-0.27459 3.2625,0.38026 7.25,1.45523 3.9875,1.07498 9.725,2.60208 12.75,3.39357 3.025,0.79149 9.1,2.51489 13.5,3.82976 4.4,1.31488 11.825,3.38167 16.5,4.59287 4.675,1.21119 9.625,2.5434 11,2.96047 9.15049,2.77551 14.4715,4.27708 32,9.030316 1.925,0.522 7.325,2.06603 12,3.43117 10.06614,2.9394 17.88119,5.07243 27.67975,7.55486 3.94887,1.00043 7.5694,2.05978 8.04562,2.3541 0.90426,0.55886 17.59518,5.15714 34.77463,9.58027 1.65,0.42482 4.575,1.29135 6.5,1.92562 1.925,0.63427 6.875,2.06484 11,3.17905 4.125,1.1142 9.075,2.45695 11,2.98388 5.31222,1.45411 28.09595,7.89355 31.5,8.90294 1.65,0.48927 6.0375,1.67826 9.75,2.6422 3.7125,0.96394 6.75,2.17736 6.75,2.6965 0,0.51914 -12.97009,23.73985 -28.82243,51.60158 -15.85234,27.86173 -29.14881,51.33269 -29.54771,52.15769 -0.3989,0.825 -1.82558,3.3 -3.1704,5.5 -1.34482,2.2 -3.15427,5.35 -4.02101,7 -0.86674,1.65 -2.66347,4.8 -3.99273,7 -1.32926,2.2 -3.32984,5.8 -4.44572,8 -1.11588,2.2 -3.11646,5.8 -4.44572,8 -1.32926,2.2 -3.12599,5.35 -3.99273,7 -0.86674,1.65 -2.66674,4.8 -4,7 -1.33326,2.2 -3.12099,5.35 -3.97273,7 -0.85174,1.65 -1.99814,3.675 -2.54757,4.5 -0.54943,0.825 -8.83423,15.37421 -18.41067,32.33158 -9.57644,16.95736 -17.64151,30.45736 -17.92238,30 -0.28087,-0.45737 -5.90501,-13.88158 -12.4981,-29.83158 -6.5931,-15.95 -15.69229,-37.325 -20.22043,-47.5 -4.52815,-10.175 -9.06194,-20.41177 -10.0751,-22.74837 l -1.8421,-4.24837 -9.28623,3.32144 c -25.84194,9.24297 -57.69728,24.17068 -82.05023,38.44949 -17.70071,10.37843 -23.4958,14.56104 -38.73693,27.95843 -70.539278,62.00606 -117.430788,147.23402 -134.393298,244.26738 -4.4414802,25.40733 -5.7799002,40.25795 -6.3313102,70.25 l -0.52857,28.75 -45.5086298,0 -45.50864,0 0.56187,-30.75 z"
       id="path3801"
       inkscape:connector-curvature="0" />
  </g>
</svg>
