<?xml version="1.0" standalone="no"?>
<!DOCTYPE svg PUBLIC "-//W3C//DTD SVG 20010904//EN"
 "http://www.w3.org/TR/2001/REC-SVG-20010904/DTD/svg10.dtd">
<svg version="1.0" xmlns="http://www.w3.org/2000/svg"
 width="685.000000pt" height="600.000000pt" viewBox="0 0 685.000000 600.000000"
 preserveAspectRatio="xMidYMid meet">
<rect width="685" height="600" fill="#eac67a"></rect>
<g transform="translate(0.000000,600.000000) scale(0.100000,-0.100000)"
fill="#233237" stroke="none">
<path d="M4288 5773 c-19 -22 -48 -79 -81 -161 -14 -34 -50 -102 -80 -150 -30
-48 -78 -127 -107 -177 -54 -91 -130 -194 -169 -229 -28 -26 -28 -71 2 -90 34
-22 69 -26 248 -30 l167 -3 67 -38 c37 -20 84 -52 104 -70 65 -58 145 -89 177
-67 38 25 39 113 0 175 -11 19 -44 53 -72 75 l-51 40 -8 131 c-4 71 -4 134 -1
139 3 6 2 74 -2 153 -10 157 -15 175 -83 267 -32 41 -45 52 -68 52 -15 0 -35
-8 -43 -17z"/>
<path d="M1195 5690 c-37 -15 -94 -85 -124 -152 -40 -88 -96 -289 -122 -435
-15 -86 -20 -168 -22 -303 -1 -225 17 -354 73 -512 l39 -110 -5 -146 c-6 -174
-16 -236 -55 -357 -42 -128 -47 -145 -54 -190 -4 -22 -16 -71 -27 -108 -17
-56 -19 -85 -14 -155 7 -102 -2 -149 -40 -203 -17 -25 -29 -57 -32 -88 -4 -43
-1 -53 21 -75 18 -18 37 -26 62 -26 44 0 90 -19 131 -53 18 -15 39 -27 47 -27
9 0 28 19 44 43 16 23 46 53 67 67 35 23 38 27 33 63 -5 35 -3 38 29 52 25 10
34 20 34 37 0 33 27 68 53 68 30 0 67 27 67 49 0 9 -7 26 -15 37 -20 26 -18
54 5 84 11 14 20 34 20 45 0 11 9 35 20 53 11 18 20 43 20 56 0 13 8 34 19 47
10 13 26 39 36 58 9 19 39 56 66 83 27 27 60 71 74 98 33 65 83 104 190 150
81 34 96 45 150 107 73 84 201 206 235 223 14 8 75 15 145 18 107 4 127 2 179
-18 67 -26 156 -105 156 -140 0 -11 -11 -43 -25 -70 -14 -27 -25 -58 -25 -69
0 -21 -18 -31 -55 -31 -27 0 -55 -34 -55 -66 0 -33 -18 -41 -102 -47 -81 -6
-112 -16 -122 -43 -8 -20 19 -64 38 -64 7 0 21 -9 31 -20 20 -22 15 -41 -27
-92 -18 -23 -20 -31 -10 -53 15 -32 35 -32 117 5 37 16 70 30 75 30 10 0 21
-52 24 -113 2 -29 9 -55 20 -65 15 -15 19 -15 43 -2 27 15 39 40 63 129 9 36
31 63 108 139 52 53 127 117 166 143 92 62 118 90 160 174 39 80 72 115 136
144 66 30 181 28 285 -5 161 -51 233 -115 307 -272 49 -103 68 -122 126 -122
29 0 53 -7 69 -20 30 -23 82 -26 121 -6 42 21 122 90 143 123 31 46 24 95 -23
176 -23 40 -58 92 -79 117 -59 71 -82 131 -89 241 -5 73 -12 105 -28 131 -13
21 -22 52 -22 76 0 31 -7 50 -28 74 -16 18 -34 52 -41 76 -6 23 -22 48 -34 56
-12 8 -66 17 -122 21 -55 4 -115 13 -134 21 -51 21 -77 18 -100 -15 -16 -22
-32 -30 -68 -36 -66 -10 -91 -25 -141 -84 -36 -43 -42 -56 -40 -88 3 -33 0
-38 -27 -47 -16 -5 -50 -25 -75 -44 -43 -32 -48 -33 -103 -27 -31 3 -76 13
-98 21 -23 7 -52 14 -64 14 -25 0 -149 90 -159 115 -24 62 34 199 112 263 61
50 232 139 350 183 66 24 91 38 89 49 -2 12 -20 15 -92 13 -131 -2 -284 -36
-380 -84 -127 -63 -197 -102 -245 -135 -44 -30 -49 -31 -191 -38 l-147 -8 -38
47 c-23 27 -129 110 -259 203 -355 252 -451 328 -610 483 -175 171 -186 178
-230 159z"/>
<path d="M5111 4624 c-23 -17 -51 -70 -51 -99 0 -8 30 -45 67 -82 56 -56 70
-78 91 -137 28 -84 38 -96 106 -135 45 -26 54 -36 75 -92 16 -42 37 -75 64
-100 38 -34 41 -42 48 -109 6 -50 17 -87 37 -123 16 -29 32 -65 36 -80 9 -36
45 -53 88 -41 31 9 33 13 36 57 2 30 -5 69 -19 108 -22 60 -22 62 -5 132 21
91 12 122 -50 165 -46 33 -56 49 -74 119 -8 34 -21 50 -56 75 -25 18 -76 59
-112 92 -68 60 -70 63 -101 182 -8 31 -19 45 -50 62 -46 26 -98 28 -130 6z"/>
<path d="M4822 3829 c-23 -12 -65 -46 -92 -77 -48 -53 -50 -59 -50 -113 0 -44
7 -70 29 -113 48 -91 79 -124 175 -187 106 -69 136 -73 202 -31 49 30 56 58
24 87 -19 17 -20 26 -14 106 6 82 5 91 -19 137 -22 41 -24 52 -13 61 11 9 21
6 44 -14 63 -53 70 -16 13 72 -29 46 -48 64 -80 76 -60 25 -165 22 -219 -4z"/>
<path d="M3119 3516 c-71 -27 -125 -60 -175 -105 -48 -44 -96 -84 -138 -114
-19 -14 -19 -15 1 -58 28 -60 165 -198 235 -238 118 -66 258 -87 382 -56 119
31 249 78 269 99 12 11 36 30 53 41 18 11 56 42 84 68 51 47 52 48 34 69 -44
48 -189 132 -249 143 -23 5 -33 2 -43 -15 -14 -23 -1 -60 22 -60 7 0 32 -14
54 -30 35 -25 42 -36 42 -65 0 -44 -48 -96 -122 -130 -83 -39 -84 -38 -91 63
-3 48 -11 117 -18 153 -11 63 -11 68 9 90 45 47 10 119 -67 138 -68 17 -243
22 -282 7z"/>
<path d="M5890 3130 c-48 -12 -63 -36 -54 -85 4 -22 8 -85 8 -140 1 -104 16
-156 56 -200 19 -21 46 -86 60 -145 4 -19 15 -62 24 -95 28 -105 41 -240 27
-294 -6 -26 -11 -65 -11 -86 1 -22 -1 -98 -3 -170 -3 -121 -6 -139 -45 -255
-23 -69 -46 -138 -53 -155 -54 -148 -71 -207 -76 -263 -5 -55 -11 -71 -38
-101 -18 -20 -45 -62 -60 -95 -20 -43 -35 -61 -59 -71 -17 -7 -54 -41 -81 -75
-27 -34 -61 -68 -76 -75 -14 -8 -51 -34 -82 -60 -31 -25 -76 -54 -100 -64 -42
-18 -69 -42 -120 -105 -23 -29 -28 -30 -117 -33 -98 -3 -112 -9 -136 -55 -19
-36 -62 -58 -118 -58 -91 0 -125 -73 -77 -168 41 -81 108 -93 177 -33 19 17
46 31 60 31 15 0 48 18 82 46 30 25 79 57 106 71 28 14 64 37 79 52 25 23 37
26 96 26 80 0 111 17 140 74 22 42 44 59 113 85 53 20 92 60 119 124 10 23 26
45 34 48 9 4 37 36 62 73 26 36 56 77 68 91 27 30 45 81 45 127 0 49 24 88 75
123 60 41 68 60 60 134 -6 65 6 109 79 281 14 33 26 74 26 91 0 34 14 85 34
124 33 65 -16 505 -67 594 -6 11 -15 64 -19 116 -11 152 -36 277 -68 340 -34
69 -50 111 -50 136 0 32 -16 64 -44 86 -23 19 -26 20 -76 8z"/>
<path d="M5070 2780 c-80 -8 -85 -10 -245 -72 -85 -34 -146 -65 -176 -90 -47
-38 -47 -38 -54 -116 -8 -93 10 -284 31 -324 8 -16 30 -36 48 -43 43 -18 64
-64 47 -102 -8 -18 -9 -29 -1 -37 5 -5 10 -20 10 -32 0 -17 -8 -24 -29 -29
-53 -11 -47 -65 7 -65 23 0 24 -3 19 -36 -9 -55 -24 -67 -73 -59 -54 8 -63 -6
-30 -46 39 -46 35 -84 -14 -130 -22 -21 -57 -43 -77 -50 -54 -17 -269 -23
-344 -10 -129 22 -245 48 -266 59 -36 20 -185 15 -236 -7 -50 -22 -67 -44 -67
-91 0 -40 35 -75 91 -90 24 -7 130 -45 234 -85 477 -183 774 -254 953 -226 75
12 281 75 291 89 3 4 40 30 81 57 41 28 111 86 155 130 76 75 165 196 165 222
0 8 -21 10 -75 6 -87 -7 -124 5 -148 46 -26 45 -21 79 17 117 19 19 43 34 54
34 29 0 97 84 116 144 39 118 63 280 72 484 6 111 -4 144 -46 157 -14 4 -20
15 -20 35 0 44 -9 59 -49 79 -56 29 -190 68 -256 76 -107 11 -119 12 -185 5z"/>
<path d="M986 2429 c-24 -19 -26 -26 -26 -106 0 -93 -7 -110 -78 -185 -22 -23
-32 -42 -29 -53 9 -23 -26 -53 -70 -60 -73 -12 -83 -15 -104 -38 -18 -19 -20
-29 -13 -67 15 -88 11 -113 -29 -164 -20 -27 -37 -57 -37 -67 0 -9 14 -30 30
-46 38 -36 38 -58 0 -78 -37 -19 -52 -55 -48 -110 l3 -40 -40 -3 c-46 -4 -75
-26 -75 -56 0 -12 11 -45 25 -74 22 -48 24 -61 16 -109 -4 -31 -5 -69 -1 -87
9 -36 63 -184 78 -212 5 -11 15 -44 22 -74 18 -76 33 -102 78 -133 21 -15 48
-44 60 -65 31 -55 58 -75 152 -112 47 -18 114 -48 150 -65 36 -18 106 -50 155
-71 96 -42 105 -43 378 -32 63 2 192 -24 215 -45 53 -46 143 -66 322 -68 131
-2 167 10 200 64 39 63 16 138 -52 177 -23 13 -58 38 -77 55 -44 39 -138 88
-213 109 -79 24 -120 74 -123 154 -1 29 -9 50 -25 67 -16 17 -21 31 -16 49 8
31 -47 140 -98 192 -20 20 -36 41 -36 45 0 5 -17 20 -39 33 -32 20 -39 31 -44
66 -3 23 -14 52 -26 63 -33 36 -61 109 -61 160 0 42 -4 52 -35 80 -27 25 -39
47 -50 92 -18 77 -19 154 -1 174 32 37 30 60 -10 97 -27 26 -39 47 -46 82 -8
45 -54 149 -89 202 -10 14 -21 44 -24 65 -14 75 -54 124 -149 184 -58 36 -84
39 -120 10z"/>
</g>
</svg>
